<svg xmlns="http://www.w3.org/2000/svg" xmlns:xlink="http://www.w3.org/1999/xlink" width="120" zoomAndPan="magnify" viewBox="0 0 90 30.000001" height="40" preserveAspectRatio="xMidYMid meet" version="1.0"><defs><g/><clipPath id="id1"><path d="M 1.453125 5 L 8 5 L 8 12 L 1.453125 12 Z M 1.453125 5 " clip-rule="nonzero"/></clipPath><clipPath id="id2"><path d="M 82 5 L 88.546875 5 L 88.546875 12 L 82 12 Z M 82 5 " clip-rule="nonzero"/></clipPath></defs><path fill="#ff914d" d="M 12.78125 17.84375 L 12.78125 27.28125 L 82.445312 27.28125 L 82.445312 17.84375 L 12.78125 17.84375 M 80.707031 25.554688 L 14.484375 25.554688 L 14.484375 19.53125 L 80.707031 19.53125 L 80.707031 25.554688 " fill-opacity="1" fill-rule="nonzero"/><path fill="#ff5757" d="M 10.054688 15.070312 L 79.71875 15.070312 L 79.71875 24.503906 L 10.054688 24.503906 L 10.054688 15.070312 " fill-opacity="1" fill-rule="nonzero"/><g clip-path="url(#id1)"><g fill="#ff914d" fill-opacity="1"><g transform="translate(1.391832, 11.619693)"><g><path d="M 3.566406 0.160156 C 4.722656 0.160156 5.65625 -0.269531 6.207031 -1.019531 C 6.246094 -1.066406 6.261719 -1.125 6.261719 -1.195312 L 6.261719 -3.152344 C 6.261719 -3.257812 6.207031 -3.3125 6.101562 -3.3125 L 3.773438 -3.3125 C 3.667969 -3.3125 3.613281 -3.257812 3.613281 -3.152344 L 3.613281 -2.203125 C 3.613281 -2.101562 3.667969 -2.042969 3.773438 -2.042969 L 4.816406 -2.042969 L 4.816406 -1.71875 C 4.53125 -1.386719 4.097656 -1.1875 3.566406 -1.1875 C 2.585938 -1.1875 1.933594 -1.867188 1.933594 -2.972656 C 1.933594 -4.023438 2.585938 -4.671875 3.566406 -4.671875 C 4.128906 -4.671875 4.582031 -4.460938 4.875 -4.105469 C 4.9375 -4.023438 5.007812 -4.007812 5.085938 -4.066406 L 6.132812 -4.761719 C 6.222656 -4.824219 6.238281 -4.898438 6.171875 -4.976562 C 5.601562 -5.679688 4.6875 -6.101562 3.566406 -6.101562 C 1.632812 -6.101562 0.347656 -4.882812 0.347656 -2.972656 C 0.347656 -1.058594 1.632812 0.160156 3.566406 0.160156 Z M 3.566406 0.160156 "/></g></g></g></g><g fill="#ff914d" fill-opacity="1"><g transform="translate(8.690898, 11.619693)"><g><path d="M 3.214844 0.160156 C 4.671875 0.160156 5.902344 -0.46875 5.902344 -2.003906 L 5.902344 -5.785156 C 5.902344 -5.886719 5.847656 -5.941406 5.746094 -5.941406 L 4.4375 -5.941406 C 4.332031 -5.941406 4.277344 -5.886719 4.277344 -5.785156 L 4.277344 -2.425781 C 4.277344 -1.609375 3.914062 -1.269531 3.214844 -1.269531 C 2.527344 -1.269531 2.15625 -1.609375 2.15625 -2.425781 L 2.15625 -5.785156 C 2.15625 -5.886719 2.101562 -5.941406 1.996094 -5.941406 L 0.6875 -5.941406 C 0.589844 -5.941406 0.53125 -5.886719 0.53125 -5.785156 L 0.53125 -2.003906 C 0.53125 -0.46875 1.800781 0.160156 3.214844 0.160156 Z M 3.214844 0.160156 "/></g></g></g><g fill="#ff914d" fill-opacity="1"><g transform="translate(15.719142, 11.619693)"><g><path d="M 2.011719 0 C 2.117188 0 2.171875 -0.0546875 2.171875 -0.160156 L 2.171875 -5.785156 C 2.171875 -5.886719 2.117188 -5.941406 2.011719 -5.941406 L 0.746094 -5.941406 C 0.640625 -5.941406 0.589844 -5.886719 0.589844 -5.785156 L 0.589844 -0.160156 C 0.589844 -0.0546875 0.640625 0 0.746094 0 Z M 2.011719 0 "/></g></g></g><g fill="#ff914d" fill-opacity="1"><g transform="translate(19.071931, 11.619693)"><g><path d="M 3.960938 0 C 4.066406 0 4.121094 -0.0546875 4.121094 -0.160156 L 4.121094 -1.1875 C 4.121094 -1.292969 4.066406 -1.347656 3.960938 -1.347656 L 2.171875 -1.347656 L 2.171875 -5.785156 C 2.171875 -5.886719 2.117188 -5.941406 2.011719 -5.941406 L 0.746094 -5.941406 C 0.640625 -5.941406 0.589844 -5.886719 0.589844 -5.785156 L 0.589844 -0.160156 C 0.589844 -0.0546875 0.640625 0 0.746094 0 Z M 3.960938 0 "/></g></g></g><g fill="#ff914d" fill-opacity="1"><g transform="translate(23.952935, 11.619693)"><g><path d="M 2.011719 0 C 2.117188 0 2.171875 -0.0546875 2.171875 -0.160156 L 2.171875 -2.003906 L 4.25 -2.003906 L 4.25 -0.160156 C 4.25 -0.0546875 4.300781 0 4.40625 0 L 5.671875 0 C 5.777344 0 5.832031 -0.0546875 5.832031 -0.160156 L 5.832031 -5.785156 C 5.832031 -5.886719 5.777344 -5.941406 5.671875 -5.941406 L 4.40625 -5.941406 C 4.300781 -5.941406 4.25 -5.886719 4.25 -5.785156 L 4.25 -3.351562 L 2.171875 -3.351562 L 2.171875 -5.785156 C 2.171875 -5.886719 2.117188 -5.941406 2.011719 -5.941406 L 0.746094 -5.941406 C 0.640625 -5.941406 0.589844 -5.886719 0.589844 -5.785156 L 0.589844 -0.160156 C 0.589844 -0.0546875 0.640625 0 0.746094 0 Z M 2.011719 0 "/></g></g></g><g fill="#ff914d" fill-opacity="1"><g transform="translate(30.973442, 11.619693)"><g><path d="M 4.445312 0 C 4.550781 0 4.605469 -0.0546875 4.605469 -0.160156 L 4.605469 -1.1875 C 4.605469 -1.292969 4.550781 -1.347656 4.445312 -1.347656 L 2.171875 -1.347656 L 2.171875 -2.042969 L 4.136719 -2.042969 C 4.242188 -2.042969 4.292969 -2.101562 4.292969 -2.203125 L 4.292969 -3.152344 C 4.292969 -3.257812 4.242188 -3.3125 4.136719 -3.3125 L 2.171875 -3.3125 L 2.171875 -4.597656 L 4.445312 -4.597656 C 4.550781 -4.597656 4.605469 -4.652344 4.605469 -4.753906 L 4.605469 -5.785156 C 4.605469 -5.886719 4.550781 -5.941406 4.445312 -5.941406 L 0.746094 -5.941406 C 0.640625 -5.941406 0.589844 -5.886719 0.589844 -5.785156 L 0.589844 -0.160156 C 0.589844 -0.0546875 0.640625 0 0.746094 0 Z M 4.445312 0 "/></g></g></g><g fill="#ff914d" fill-opacity="1"><g transform="translate(36.624358, 11.619693)"><g><path d="M 4.429688 -2.230469 C 5.015625 -2.539062 5.347656 -3.171875 5.347656 -4.03125 C 5.347656 -5.050781 4.890625 -5.941406 3.214844 -5.941406 L 0.746094 -5.941406 C 0.640625 -5.941406 0.589844 -5.886719 0.589844 -5.785156 L 0.589844 -0.160156 C 0.589844 -0.0546875 0.640625 0 0.746094 0 L 2.019531 0 C 2.125 0 2.179688 -0.0546875 2.179688 -0.160156 L 2.179688 -2.027344 L 2.847656 -2.027344 L 3.804688 -0.121094 C 3.84375 -0.0390625 3.898438 0 3.984375 0 L 5.429688 0 C 5.546875 0 5.59375 -0.078125 5.539062 -0.191406 Z M 2.941406 -4.597656 C 3.257812 -4.597656 3.765625 -4.597656 3.765625 -4.015625 C 3.765625 -3.375 3.160156 -3.375 2.941406 -3.375 L 2.179688 -3.375 L 2.179688 -4.597656 Z M 2.941406 -4.597656 "/></g></g></g><g fill="#ff914d" fill-opacity="1"><g transform="translate(43.09935, 11.619693)"><g><path d="M 1.980469 0 C 2.085938 0 2.140625 -0.0546875 2.140625 -0.160156 L 2.140625 -2.289062 L 3.476562 -0.726562 C 3.550781 -0.640625 3.628906 -0.640625 3.699219 -0.726562 L 5.058594 -2.304688 L 5.058594 -0.160156 C 5.058594 -0.0546875 5.109375 0 5.214844 0 L 6.441406 0 C 6.546875 0 6.601562 -0.0546875 6.601562 -0.160156 L 6.601562 -5.808594 C 6.601562 -6.101562 6.394531 -6.171875 6.214844 -5.941406 L 3.589844 -2.660156 L 0.984375 -5.941406 C 0.792969 -6.183594 0.597656 -6.101562 0.597656 -5.808594 L 0.597656 -0.160156 C 0.597656 -0.0546875 0.648438 0 0.753906 0 Z M 1.980469 0 "/></g></g></g><g fill="#ff914d" fill-opacity="1"><g transform="translate(50.889768, 11.619693)"><g><path d="M 4.445312 0 C 4.550781 0 4.605469 -0.0546875 4.605469 -0.160156 L 4.605469 -1.1875 C 4.605469 -1.292969 4.550781 -1.347656 4.445312 -1.347656 L 2.171875 -1.347656 L 2.171875 -2.042969 L 4.136719 -2.042969 C 4.242188 -2.042969 4.292969 -2.101562 4.292969 -2.203125 L 4.292969 -3.152344 C 4.292969 -3.257812 4.242188 -3.3125 4.136719 -3.3125 L 2.171875 -3.3125 L 2.171875 -4.597656 L 4.445312 -4.597656 C 4.550781 -4.597656 4.605469 -4.652344 4.605469 -4.753906 L 4.605469 -5.785156 C 4.605469 -5.886719 4.550781 -5.941406 4.445312 -5.941406 L 0.746094 -5.941406 C 0.640625 -5.941406 0.589844 -5.886719 0.589844 -5.785156 L 0.589844 -0.160156 C 0.589844 -0.0546875 0.640625 0 0.746094 0 Z M 4.445312 0 "/></g></g></g><g fill="#ff914d" fill-opacity="1"><g transform="translate(56.540685, 11.619693)"><g/></g></g><g fill="#ff914d" fill-opacity="1"><g transform="translate(59.669078, 11.619693)"><g><path d="M 2.761719 -1.347656 L 5.355469 -5.753906 C 5.421875 -5.855469 5.375 -5.941406 5.246094 -5.941406 L 0.734375 -5.941406 C 0.632812 -5.941406 0.582031 -5.886719 0.582031 -5.785156 L 0.582031 -4.753906 C 0.582031 -4.652344 0.632812 -4.597656 0.734375 -4.597656 L 2.8125 -4.597656 L 0.226562 -0.191406 C 0.167969 -0.0898438 0.210938 0 0.339844 0 L 5.332031 0 C 5.4375 0 5.488281 -0.0546875 5.488281 -0.160156 L 5.488281 -1.1875 C 5.488281 -1.292969 5.4375 -1.347656 5.332031 -1.347656 Z M 2.761719 -1.347656 "/></g></g></g><g fill="#ff914d" fill-opacity="1"><g transform="translate(66.008659, 11.619693)"><g><path d="M 3.273438 -5.941406 C 3.152344 -6.1875 2.964844 -6.1875 2.84375 -5.941406 L 0.121094 -0.191406 C 0.0703125 -0.078125 0.121094 0 0.234375 0 L 1.632812 0 C 1.71875 0 1.785156 -0.046875 1.816406 -0.128906 L 2.007812 -0.625 L 4.109375 -0.625 L 4.300781 -0.128906 C 4.332031 -0.046875 4.398438 0 4.484375 0 L 5.878906 0 C 5.996094 0 6.046875 -0.078125 5.996094 -0.191406 Z M 3.058594 -3.308594 L 3.644531 -1.816406 L 2.472656 -1.816406 Z M 3.058594 -3.308594 "/></g></g></g><g fill="#ff914d" fill-opacity="1"><g transform="translate(72.727392, 11.619693)"><g><path d="M 3.960938 0 C 4.066406 0 4.121094 -0.0546875 4.121094 -0.160156 L 4.121094 -1.1875 C 4.121094 -1.292969 4.066406 -1.347656 3.960938 -1.347656 L 2.171875 -1.347656 L 2.171875 -5.785156 C 2.171875 -5.886719 2.117188 -5.941406 2.011719 -5.941406 L 0.746094 -5.941406 C 0.640625 -5.941406 0.589844 -5.886719 0.589844 -5.785156 L 0.589844 -0.160156 C 0.589844 -0.0546875 0.640625 0 0.746094 0 Z M 3.960938 0 "/></g></g></g><g fill="#ff914d" fill-opacity="1"><g transform="translate(77.608397, 11.619693)"><g><path d="M 3.960938 0 C 4.066406 0 4.121094 -0.0546875 4.121094 -0.160156 L 4.121094 -1.1875 C 4.121094 -1.292969 4.066406 -1.347656 3.960938 -1.347656 L 2.171875 -1.347656 L 2.171875 -5.785156 C 2.171875 -5.886719 2.117188 -5.941406 2.011719 -5.941406 L 0.746094 -5.941406 C 0.640625 -5.941406 0.589844 -5.886719 0.589844 -5.785156 L 0.589844 -0.160156 C 0.589844 -0.0546875 0.640625 0 0.746094 0 Z M 3.960938 0 "/></g></g></g><g clip-path="url(#id2)"><g fill="#ff914d" fill-opacity="1"><g transform="translate(82.489403, 11.619693)"><g><path d="M 3.273438 -5.941406 C 3.152344 -6.1875 2.964844 -6.1875 2.84375 -5.941406 L 0.121094 -0.191406 C 0.0703125 -0.078125 0.121094 0 0.234375 0 L 1.632812 0 C 1.71875 0 1.785156 -0.046875 1.816406 -0.128906 L 2.007812 -0.625 L 4.109375 -0.625 L 4.300781 -0.128906 C 4.332031 -0.046875 4.398438 0 4.484375 0 L 5.878906 0 C 5.996094 0 6.046875 -0.078125 5.996094 -0.191406 Z M 3.058594 -3.308594 L 3.644531 -1.816406 L 2.472656 -1.816406 Z M 3.058594 -3.308594 "/></g></g></g></g><g fill="#ffffff" fill-opacity="1"><g transform="translate(25.690594, 21.313725)"><g><path d="M 2.546875 0 L 1.53125 0 L 1.390625 -2.328125 L 1.390625 -2.75 L 1.296875 -2.75 L 1.296875 -2.328125 L 1.15625 0 L 0.140625 0 L 0.03125 -3.078125 L 0.5625 -3.078125 L 0.625 -0.734375 L 0.625 -0.34375 L 0.734375 -0.34375 L 0.734375 -0.734375 L 0.875 -3.078125 L 1.8125 -3.078125 L 1.953125 -0.734375 L 1.953125 -0.34375 L 2.0625 -0.34375 L 2.0625 -0.734375 L 2.125 -3.078125 L 2.65625 -3.078125 Z M 2.546875 0 "/></g></g></g><g fill="#ffffff" fill-opacity="1"><g transform="translate(28.639519, 21.313725)"><g><path d="M 0.359375 -3.078125 L 2.296875 -3.078125 L 2.296875 -2.515625 L 0.9375 -2.515625 L 0.9375 -1.8125 L 2.25 -1.8125 L 2.25 -1.265625 L 0.9375 -1.265625 L 0.9375 -0.546875 L 2.359375 -0.546875 L 2.359375 0 L 0.359375 0 Z M 0.359375 -3.078125 "/></g></g></g><g fill="#ffffff" fill-opacity="1"><g transform="translate(31.588443, 21.313725)"><g><path d="M 0.203125 -0.546875 L 0.484375 -0.546875 L 0.484375 -2.515625 L 0.203125 -2.515625 L 0.203125 -3.078125 L 1.546875 -3.078125 C 1.691406 -3.078125 1.820312 -3.054688 1.9375 -3.015625 C 2.050781 -2.972656 2.144531 -2.914062 2.21875 -2.84375 C 2.300781 -2.769531 2.359375 -2.6875 2.390625 -2.59375 C 2.429688 -2.5 2.453125 -2.394531 2.453125 -2.28125 L 2.453125 -2.21875 C 2.453125 -2.039062 2.40625 -1.898438 2.3125 -1.796875 C 2.21875 -1.691406 2.09375 -1.617188 1.9375 -1.578125 L 1.9375 -1.5 C 2.09375 -1.457031 2.21875 -1.382812 2.3125 -1.28125 C 2.40625 -1.175781 2.453125 -1.035156 2.453125 -0.859375 L 2.453125 -0.796875 C 2.453125 -0.679688 2.429688 -0.578125 2.390625 -0.484375 C 2.359375 -0.390625 2.300781 -0.304688 2.21875 -0.234375 C 2.144531 -0.160156 2.050781 -0.101562 1.9375 -0.0625 C 1.820312 -0.0195312 1.691406 0 1.546875 0 L 0.203125 0 Z M 1.078125 -0.546875 L 1.5 -0.546875 C 1.613281 -0.546875 1.707031 -0.570312 1.78125 -0.625 C 1.863281 -0.6875 1.90625 -0.773438 1.90625 -0.890625 L 1.90625 -0.921875 C 1.90625 -1.046875 1.863281 -1.132812 1.78125 -1.1875 C 1.707031 -1.238281 1.613281 -1.265625 1.5 -1.265625 L 1.078125 -1.265625 Z M 1.078125 -1.8125 L 1.5 -1.8125 C 1.613281 -1.8125 1.707031 -1.835938 1.78125 -1.890625 C 1.863281 -1.941406 1.90625 -2.03125 1.90625 -2.15625 L 1.90625 -2.1875 C 1.90625 -2.300781 1.863281 -2.382812 1.78125 -2.4375 C 1.707031 -2.488281 1.613281 -2.515625 1.5 -2.515625 L 1.078125 -2.515625 Z M 1.078125 -1.8125 "/></g></g></g><g fill="#ffffff" fill-opacity="1"><g transform="translate(34.537367, 21.313725)"><g/></g></g><g fill="#ffffff" fill-opacity="1"><g transform="translate(37.486291, 21.313725)"><g><path d="M 0.203125 -3.078125 L 1.3125 -3.078125 C 1.695312 -3.078125 1.976562 -2.988281 2.15625 -2.8125 C 2.34375 -2.632812 2.4375 -2.359375 2.4375 -1.984375 L 2.4375 -1.09375 C 2.4375 -0.71875 2.34375 -0.441406 2.15625 -0.265625 C 1.976562 -0.0859375 1.695312 0 1.3125 0 L 0.203125 0 L 0.203125 -0.5625 L 0.484375 -0.5625 L 0.484375 -2.515625 L 0.203125 -2.515625 Z M 1.3125 -0.546875 C 1.519531 -0.546875 1.660156 -0.59375 1.734375 -0.6875 C 1.816406 -0.789062 1.859375 -0.941406 1.859375 -1.140625 L 1.859375 -1.984375 C 1.859375 -2.160156 1.816406 -2.289062 1.734375 -2.375 C 1.660156 -2.46875 1.519531 -2.515625 1.3125 -2.515625 L 1.078125 -2.515625 L 1.078125 -0.546875 Z M 1.3125 -0.546875 "/></g></g></g><g fill="#ffffff" fill-opacity="1"><g transform="translate(40.435216, 21.313725)"><g><path d="M 0.359375 -3.078125 L 2.296875 -3.078125 L 2.296875 -2.515625 L 0.9375 -2.515625 L 0.9375 -1.8125 L 2.25 -1.8125 L 2.25 -1.265625 L 0.9375 -1.265625 L 0.9375 -0.546875 L 2.359375 -0.546875 L 2.359375 0 L 0.359375 0 Z M 0.359375 -3.078125 "/></g></g></g><g fill="#ffffff" fill-opacity="1"><g transform="translate(43.384141, 21.313725)"><g><path d="M 0.109375 -3.078125 L 0.703125 -3.078125 L 1.296875 -0.296875 L 1.390625 -0.296875 L 1.984375 -3.078125 L 2.578125 -3.078125 L 1.890625 0 L 0.796875 0 Z M 0.109375 -3.078125 "/></g></g></g><g fill="#ffffff" fill-opacity="1"><g transform="translate(46.333065, 21.313725)"><g><path d="M 0.359375 -3.078125 L 2.296875 -3.078125 L 2.296875 -2.515625 L 0.9375 -2.515625 L 0.9375 -1.8125 L 2.25 -1.8125 L 2.25 -1.265625 L 0.9375 -1.265625 L 0.9375 -0.546875 L 2.359375 -0.546875 L 2.359375 0 L 0.359375 0 Z M 0.359375 -3.078125 "/></g></g></g><g fill="#ffffff" fill-opacity="1"><g transform="translate(49.281988, 21.313725)"><g><path d="M 0.359375 -3.078125 L 0.9375 -3.078125 L 0.9375 -0.546875 L 2.328125 -0.546875 L 2.328125 0 L 0.359375 0 Z M 0.359375 -3.078125 "/></g></g></g><g fill="#ffffff" fill-opacity="1"><g transform="translate(52.230911, 21.313725)"><g><path d="M 0.203125 -1.875 C 0.203125 -2.269531 0.300781 -2.578125 0.5 -2.796875 C 0.707031 -3.023438 0.988281 -3.140625 1.34375 -3.140625 C 1.695312 -3.140625 1.972656 -3.023438 2.171875 -2.796875 C 2.367188 -2.578125 2.46875 -2.269531 2.46875 -1.875 L 2.46875 -1.1875 C 2.46875 -0.78125 2.367188 -0.46875 2.171875 -0.25 C 1.972656 -0.0390625 1.695312 0.0625 1.34375 0.0625 C 0.988281 0.0625 0.707031 -0.0390625 0.5 -0.25 C 0.300781 -0.46875 0.203125 -0.78125 0.203125 -1.1875 Z M 1.34375 -0.46875 C 1.445312 -0.46875 1.535156 -0.484375 1.609375 -0.515625 C 1.679688 -0.546875 1.738281 -0.59375 1.78125 -0.65625 C 1.820312 -0.71875 1.847656 -0.789062 1.859375 -0.875 C 1.878906 -0.957031 1.890625 -1.050781 1.890625 -1.15625 L 1.890625 -1.921875 C 1.890625 -2.015625 1.878906 -2.101562 1.859375 -2.1875 C 1.835938 -2.269531 1.804688 -2.34375 1.765625 -2.40625 C 1.722656 -2.46875 1.664062 -2.515625 1.59375 -2.546875 C 1.53125 -2.585938 1.445312 -2.609375 1.34375 -2.609375 C 1.238281 -2.609375 1.148438 -2.585938 1.078125 -2.546875 C 1.015625 -2.515625 0.960938 -2.46875 0.921875 -2.40625 C 0.878906 -2.34375 0.847656 -2.269531 0.828125 -2.1875 C 0.804688 -2.101562 0.796875 -2.015625 0.796875 -1.921875 L 0.796875 -1.15625 C 0.796875 -1.050781 0.800781 -0.957031 0.8125 -0.875 C 0.832031 -0.789062 0.863281 -0.71875 0.90625 -0.65625 C 0.945312 -0.59375 1.003906 -0.546875 1.078125 -0.515625 C 1.148438 -0.484375 1.238281 -0.46875 1.34375 -0.46875 Z M 1.34375 -0.46875 "/></g></g></g><g fill="#ffffff" fill-opacity="1"><g transform="translate(55.179835, 21.313725)"><g><path d="M 0.890625 -1.15625 L 0.890625 0 L 0.3125 0 L 0.3125 -3.078125 L 1.515625 -3.078125 C 1.671875 -3.078125 1.804688 -3.050781 1.921875 -3 C 2.046875 -2.945312 2.144531 -2.878906 2.21875 -2.796875 C 2.300781 -2.710938 2.359375 -2.613281 2.390625 -2.5 C 2.429688 -2.394531 2.453125 -2.289062 2.453125 -2.1875 L 2.453125 -2.078125 C 2.453125 -1.960938 2.429688 -1.847656 2.390625 -1.734375 C 2.359375 -1.628906 2.300781 -1.53125 2.21875 -1.4375 C 2.144531 -1.351562 2.046875 -1.285156 1.921875 -1.234375 C 1.804688 -1.179688 1.671875 -1.15625 1.515625 -1.15625 Z M 0.890625 -1.71875 L 1.46875 -1.71875 C 1.59375 -1.71875 1.691406 -1.75 1.765625 -1.8125 C 1.835938 -1.882812 1.875 -1.976562 1.875 -2.09375 L 1.875 -2.140625 C 1.875 -2.253906 1.835938 -2.34375 1.765625 -2.40625 C 1.691406 -2.476562 1.59375 -2.515625 1.46875 -2.515625 L 0.890625 -2.515625 Z M 0.890625 -1.71875 "/></g></g></g><g fill="#ffffff" fill-opacity="1"><g transform="translate(58.128758, 21.313725)"><g><path d="M 0.359375 -3.078125 L 2.296875 -3.078125 L 2.296875 -2.515625 L 0.9375 -2.515625 L 0.9375 -1.8125 L 2.25 -1.8125 L 2.25 -1.265625 L 0.9375 -1.265625 L 0.9375 -0.546875 L 2.359375 -0.546875 L 2.359375 0 L 0.359375 0 Z M 0.359375 -3.078125 "/></g></g></g><g fill="#ffffff" fill-opacity="1"><g transform="translate(61.077681, 21.313725)"><g><path d="M 2.390625 0 L 1.796875 0 L 1.796875 -0.921875 C 1.796875 -0.992188 1.773438 -1.050781 1.734375 -1.09375 C 1.703125 -1.132812 1.644531 -1.15625 1.5625 -1.15625 L 0.90625 -1.15625 L 0.90625 0 L 0.328125 0 L 0.328125 -3.078125 L 1.5 -3.078125 C 1.65625 -3.078125 1.789062 -3.050781 1.90625 -3 C 2.03125 -2.957031 2.128906 -2.894531 2.203125 -2.8125 C 2.285156 -2.738281 2.347656 -2.648438 2.390625 -2.546875 C 2.441406 -2.453125 2.46875 -2.34375 2.46875 -2.21875 L 2.46875 -2.125 C 2.46875 -2 2.429688 -1.878906 2.359375 -1.765625 C 2.296875 -1.660156 2.191406 -1.578125 2.046875 -1.515625 L 2.046875 -1.4375 C 2.148438 -1.425781 2.234375 -1.382812 2.296875 -1.3125 C 2.359375 -1.25 2.390625 -1.164062 2.390625 -1.0625 Z M 0.90625 -1.71875 L 1.453125 -1.71875 C 1.597656 -1.71875 1.707031 -1.75 1.78125 -1.8125 C 1.851562 -1.875 1.890625 -1.96875 1.890625 -2.09375 L 1.890625 -2.140625 C 1.890625 -2.242188 1.851562 -2.332031 1.78125 -2.40625 C 1.707031 -2.476562 1.597656 -2.515625 1.453125 -2.515625 L 0.90625 -2.515625 Z M 0.90625 -1.71875 "/></g></g></g></svg>